# xmcd CD database file
#
# Track frame offsets:
#	150
#	12900
#	26563
#	41350
#	57313
#	74038
#	87788
#	102503
#	115363
#	132620
#	146525
#	166488
#	177538
#	191505
#	207963
#	223513
#
# Disc length: 3102 seconds
#
# Revision: 0
# Processed by: cddbd v1.4PL0 Copyright (c) Steve Scherf et al.
# Submitted via: CDex 1.50beta10
#
DISCID=f20c1c10
DTITLE=Various Artist - 典藏國語老歌九
DYEAR=1900
DGENRE=國語老歌
TTITLE0=神秘女郎
TTITLE1=午夜香吻
TTITLE2=夜來香
TTITLE3=南屏晚鐘
TTITLE4=漁家女
TTITLE5=得不到的愛情
TTITLE6=碧城故事
TTITLE7=海誓山盟
TTITLE8=純純的愛
TTITLE9=愛你一萬年
TTITLE10=襟裳岬
TTITLE11=今夜雨濛濛
TTITLE12=戀痕
TTITLE13=又是秋天
TTITLE14=找一個下雨天
TTITLE15=梅蘭梅蘭我愛你
EXTD=
EXTT0=
EXTT1=
EXTT2=
EXTT3=
EXTT4=
EXTT5=
EXTT6=
EXTT7=
EXTT8=
EXTT9=
EXTT10=
EXTT11=
EXTT12=
EXTT13=
EXTT14=
EXTT15=
PLAYORDER=
